HIERARCHY
ROOT Hips
{
	OFFSET 0.00000 0.00000 0.00000
	CHANNELS 6 Xposition Yposition Zposition Zrotation Yrotation Xrotation 
	JOINT LHipJoint
	{
		OFFSET 0 0 0
		CHANNELS 3 Zrotation Yrotation Xrotation
		JOINT LeftUpLeg
		{
			OFFSET 1.59801 -1.77853 0.57028
			CHANNELS 3 Zrotation Yrotation Xrotation
			JOINT LeftLeg
			{
				OFFSET 2.39439 -6.57854 0.00000
				CHANNELS 3 Zrotation Yrotation Xrotation
				JOINT LeftFoot
				{
					OFFSET 2.69334 -7.39989 0.00000
					CHANNELS 3 Zrotation Yrotation Xrotation
					JOINT LeftToeBase
					{
						OFFSET 0.09553 -0.26245 1.73747
						CHANNELS 3 Zrotation Yrotation Xrotation
						End Site
						{
							OFFSET 0.00000 -0.00000 0.89391
						}
					}
				}
			}
		}
	}
	JOINT RHipJoint
	{
		OFFSET 0 0 0
		CHANNELS 3 Zrotation Yrotation Xrotation
		JOINT RightUpLeg
		{
			OFFSET -1.54704 -1.77852 0.57028
			CHANNELS 3 Zrotation Yrotation Xrotation
			JOINT RightLeg
			{
				OFFSET -2.40286 -6.60180 0.00000
				CHANNELS 3 Zrotation Yrotation Xrotation
				JOINT RightFoot
				{
					OFFSET -2.63873 -7.24984 0.00000
					CHANNELS 3 Zrotation Yrotation Xrotation
					JOINT RightToeBase
					{
						OFFSET -0.15631 -0.42945 1.84436
						CHANNELS 3 Zrotation Yrotation Xrotation
						End Site
						{
							OFFSET -0.00000 -0.00000 0.95734
						}
					}
				}
			}
		}
	}
	JOINT LowerBack
	{
		OFFSET 0 0 0
		CHANNELS 3 Zrotation Yrotation Xrotation
		JOINT Spine
		{
			OFFSET -0.00436 1.89866 -0.04018
			CHANNELS 3 Zrotation Yrotation Xrotation
			JOINT Spine1
			{
				OFFSET 0.02031 1.88273 0.09634
				CHANNELS 3 Zrotation Yrotation Xrotation
				JOINT Neck
				{
					OFFSET 0 0 0
					CHANNELS 3 Zrotation Yrotation Xrotation
					JOINT Neck1
					{
						OFFSET -0.13105 1.89371 0.23083
						CHANNELS 3 Zrotation Yrotation Xrotation
						JOINT Head
						{
							OFFSET 0.17062 1.83990 -0.54062
							CHANNELS 3 Zrotation Yrotation Xrotation
							End Site
							{
								OFFSET 0.04576 1.94782 -0.21839
							}
						}
					}
				}
				JOINT LeftShoulder
				{
					OFFSET 0 0 0
					CHANNELS 3 Zrotation Yrotation Xrotation
					JOINT LeftArm
					{
						OFFSET 3.12424 1.09204 0.22226
						CHANNELS 3 Zrotation Yrotation Xrotation
						JOINT LeftForeArm
						{
							OFFSET 5.29277 -0.00000 0.00000
							CHANNELS 3 Zrotation Yrotation Xrotation
							JOINT LeftHand
							{
								OFFSET 2.85226 -0.00000 0.00000
								CHANNELS 3 Zrotation Yrotation Xrotation
								JOINT LeftFingerBase
								{
									OFFSET 0 0 0
									CHANNELS 3 Zrotation Yrotation Xrotation
									JOINT LeftHandIndex1
									{
										OFFSET 0.60210 -0.00000 0.00000
										CHANNELS 3 Zrotation Yrotation Xrotation
										End Site
										{
											OFFSET 0.48543 -0.00000 0.00000
										}
									}
								}
								JOINT LThumb
								{
									OFFSET 0 0 0
									CHANNELS 3 Zrotation Yrotation Xrotation
									End Site
									{
										OFFSET 0.49284 -0.00000 0.49284
									}
								}
							}
						}
					}
				}
				JOINT RightShoulder
				{
					OFFSET 0 0 0
					CHANNELS 3 Zrotation Yrotation Xrotation
					JOINT RightArm
					{
						OFFSET -2.91709 1.01504 0.30199
						CHANNELS 3 Zrotation Yrotation Xrotation
						JOINT RightForeArm
						{
							OFFSET -5.13304 -0.00000 0.00000
							CHANNELS 3 Zrotation Yrotation Xrotation
							JOINT RightHand
							{
								OFFSET -2.74305 -0.00000 0.00000
								CHANNELS 3 Zrotation Yrotation Xrotation
								JOINT RightFingerBase
								{
									OFFSET 0 0 0
									CHANNELS 3 Zrotation Yrotation Xrotation
									JOINT RightHandIndex1
									{
										OFFSET -0.76798 -0.00000 0.00000
										CHANNELS 3 Zrotation Yrotation Xrotation
										End Site
										{
											OFFSET -0.61916 -0.00000 0.00000
										}
									}
								}
								JOINT RThumb
								{
									OFFSET 0 0 0
									CHANNELS 3 Zrotation Yrotation Xrotation
									End Site
									{
										OFFSET -0.62862 -0.00000 0.62862
									}
								}
							}
						}
					}
				}
			}
		}
	}
}
MOTION
Frames: 14
Frame Time: .0083333
0.3034 17.2757 -1.5223 -0.9774 7.0948 5.3541 0.0000 0.0000 0.0000 -15.5575 -21.2400 -13.1512 2.0485 8.9664 25.6901 0.5021 -0.5490 -13.2077 1.5689 -7.9037 -22.4219 0.0000 0.0000 0.0000 17.5030 10.1743 -11.6152 -1.4579 -7.6316 21.6005 -0.3450 -7.6208 -16.4124 -1.7532 8.3318 -23.7265 -4.4223 0.0048 5.3623 1.9054 -0.0743 10.8091 4.4985 -0.4805 8.4342 -29.0772 -15.8280 22.3369 4.8393 -26.4198 35.1025 4.0760 -15.2967 13.7843 0.0000 0.0000 0.0000 4.6201 -71.8814 -40.0496 122.9583 -55.4687 -88.1085 -0.0000 0.0000 -69.3832 -46.6487 28.5138 -26.8242 -7.1250 0.0000 -0.0000 -66.5064 47.0183 -6.0408 0.0000 0.0000 0.0000 132.7727 69.2586 60.0756 -2.6994 4.6634 -0.1099 0.0000 0.0000 79.2449 28.4730 9.6375 5.1880 7.1250 -0.0000 -0.0000 35.9659 -18.5802 29.0587
0.3021 17.2772 -1.4942 -1.1320 6.9845 5.0320 0.0000 0.0000 0.0000 -15.5307 -21.0645 -12.6661 2.0441 8.9574 25.6621 0.5168 -0.6140 -13.3821 1.4987 -7.7330 -21.9059 0.0000 0.0000 0.0000 17.7763 10.1295 -11.0802 -1.4394 -7.5851 21.4609 -0.3463 -7.6287 -16.4368 -1.7711 8.3720 -23.8497 -4.3355 0.0273 5.1595 1.9358 -0.0395 10.7705 4.4831 -0.4591 8.5024 -29.8677 -15.5575 22.4423 6.4068 -26.6969 34.8244 4.7007 -15.4605 14.1163 -0.0000 -0.0000 0.0000 6.7466 -71.3032 -41.8822 123.0065 -55.4541 -88.1482 -0.0000 0.0000 -69.1786 -46.7434 28.5468 -26.9252 -7.1250 0.0000 -0.0000 -66.5816 47.0245 -6.0764 -0.0000 -0.0000 0.0000 133.6767 69.8164 60.7586 -2.7131 4.6870 -0.1111 0.0000 0.0000 79.7392 28.2013 9.6474 5.1350 7.1250 -0.0000 -0.0000 35.8386 -18.6257 28.8393
0.3062 17.2838 -1.4651 -1.1904 6.9027 4.9196 0.0000 0.0000 0.0000 -15.5644 -21.0235 -12.3555 2.0330 8.9345 25.5907 0.5310 -0.5256 -13.5956 1.4879 -7.7063 -21.8255 0.0000 0.0000 0.0000 17.8904 9.9928 -10.7719 -1.4231 -7.5437 21.3366 -0.3701 -7.4420 -16.5587 -1.7140 8.2430 -23.4546 -4.2161 0.0336 4.7017 1.9003 -0.0139 10.6828 4.3794 -0.4378 8.6633 -28.6169 -16.0932 21.6803 5.3900 -26.7915 34.6851 4.1285 -15.3688 13.7597 -0.0000 0.0000 0.0000 9.0055 -70.6688 -43.7705 123.0904 -55.4286 -88.2173 -0.0000 0.0000 -69.1008 -46.7345 28.5854 -26.9465 -7.1250 0.0000 -0.0000 -66.6255 47.0522 -6.1642 -0.0000 0.0000 0.0000 134.5615 70.4068 61.3645 -2.7148 4.6899 -0.1112 0.0000 0.0000 80.1691 27.8166 9.6926 5.0763 7.1250 -0.0000 -0.0000 35.6483 -18.6598 28.5511
0.3090 17.2877 -1.4376 -1.1137 6.8335 4.8457 0.0000 0.0000 0.0000 -15.7362 -20.9891 -12.0733 2.0184 8.9042 25.4962 0.5422 -0.4285 -13.7697 1.4284 -7.5572 -21.3770 0.0000 0.0000 0.0000 17.8455 9.9292 -10.5119 -1.4090 -7.5079 21.2291 -0.3866 -7.3410 -16.6702 -1.6199 8.0249 -22.7898 -4.3278 0.0068 4.3001 1.8752 -0.0343 10.5449 4.4152 -0.4558 8.7465 -28.3292 -16.3104 21.1119 5.2007 -26.9108 34.7272 3.9517 -15.3833 13.7995 -0.0000 -0.0000 0.0000 10.9233 -69.9182 -45.4073 123.0951 -55.4271 -88.2211 -0.0000 0.0000 -69.1366 -46.9535 28.6045 -27.1385 -7.1250 0.0000 -0.0000 -66.7292 47.0276 -6.1220 -0.0000 -0.0000 0.0000 135.6017 70.8708 62.2156 -2.6936 4.6534 -0.1095 0.0000 0.0000 80.4317 27.6853 9.6847 5.0442 7.1250 -0.0000 -0.0000 35.5890 -18.6920 28.4389
0.3082 17.2853 -1.4103 -1.0550 6.7414 4.6094 0.0000 0.0000 0.0000 -15.9358 -20.8593 -11.6111 2.0028 8.8719 25.3954 0.5352 -0.3521 -13.7040 1.3826 -7.4402 -21.0263 0.0000 0.0000 0.0000 17.8657 9.9099 -10.0811 -1.3961 -7.4748 21.1299 -0.3790 -7.4376 -16.6667 -1.6272 8.0420 -22.8418 -4.4615 0.0271 4.1754 1.8751 -0.0036 10.3842 4.4902 -0.4455 8.6378 -28.3467 -16.4149 20.8024 5.3139 -27.0665 34.7296 3.9307 -15.4443 13.9016 -0.0000 -0.0000 0.0000 12.4027 -69.3318 -46.6015 123.1541 -55.4092 -88.2697 -0.0000 0.0000 -69.0258 -47.0531 28.7202 -27.3058 -7.1250 0.0000 -0.0000 -66.9085 47.0890 -6.3389 -0.0000 -0.0000 0.0000 136.4180 71.3246 62.8255 -2.6919 4.6506 -0.1093 0.0000 0.0000 80.7249 27.5620 9.5815 4.9652 7.1250 -0.0000 -0.0000 35.5586 -18.8083 28.2746
0.3071 17.2829 -1.3811 -0.9916 6.6503 4.3531 0.0000 0.0000 0.0000 -16.1501 -20.7215 -11.1276 1.9944 8.8543 25.3406 0.5268 -0.2471 -13.6304 1.3811 -7.4364 -21.0150 0.0000 0.0000 0.0000 17.8796 9.8872 -9.5982 -1.3772 -7.4262 20.9842 -0.3773 -7.5057 -16.7098 -1.6464 8.0870 -22.9786 -4.6250 0.0420 4.0873 1.9172 0.0113 9.9364 4.6231 -0.4316 8.1900 -28.5120 -16.2986 21.1672 5.2329 -27.0422 34.7025 3.9555 -15.4798 13.8458 0.0000 0.0000 0.0000 12.2494 -68.8988 -46.1125 123.1339 -55.4153 -88.2531 -0.0000 0.0000 -68.8414 -47.2950 28.4964 -27.3363 -7.1250 0.0000 -0.0000 -66.7180 46.8956 -5.7494 0.0000 0.0000 0.0000 135.6653 71.3584 61.8783 -2.7050 4.6731 -0.1104 0.0000 0.0000 81.0451 27.0592 9.3191 4.7287 7.1250 -0.0000 -0.0000 35.3900 -19.1370 27.7074
0.3068 17.2838 -1.3504 -1.0217 6.5807 4.0867 0.0000 0.0000 0.0000 -16.2608 -20.6495 -10.6429 1.9905 8.8462 25.3155 0.5424 -0.2173 -13.8424 1.3469 -7.3475 -20.7490 0.0000 0.0000 0.0000 18.0010 9.7962 -9.0853 -1.3540 -7.3661 20.8045 -0.3825 -7.5022 -16.7711 -1.6582 8.1145 -23.0625 -4.7639 -0.0329 4.0498 1.9614 -0.0958 9.5417 4.7416 -0.4778 7.7897 -28.5966 -16.1780 21.2347 5.1330 -26.9350 34.6877 3.9531 -15.4608 13.8037 0.0000 0.0000 0.0000 12.3143 -67.9915 -45.7536 123.0951 -55.4271 -88.2211 -0.0000 0.0000 -68.7425 -47.2884 28.0766 -27.0140 -7.1250 0.0000 -0.0000 -66.1969 46.6071 -4.8232 0.0000 0.0000 0.0000 135.7949 71.3523 61.8517 -2.6771 4.6252 -0.1081 0.0000 0.0000 81.3968 26.7219 9.1095 4.5570 7.1250 -0.0000 -0.0000 35.2838 -19.3854 27.3100
0.3075 17.2831 -1.3196 -1.1573 6.5357 3.8222 0.0000 0.0000 0.0000 -16.2363 -20.4986 -10.2536 1.9915 8.8482 25.3218 0.5535 -0.2225 -13.9821 1.3689 -7.4049 -20.9205 0.0000 0.0000 0.0000 18.2403 9.7284 -8.5595 -1.3265 -7.2939 20.5889 -0.3816 -7.5636 -16.8171 -1.6923 8.1934 -23.3029 -4.7115 -0.1249 3.8154 1.9847 -0.2138 9.3910 4.7326 -0.5302 7.7720 -28.5592 -16.2182 20.8730 5.1209 -26.9448 34.6130 3.9088 -15.4540 13.8128 0.0000 -0.0000 0.0000 13.6451 -66.8628 -46.5904 122.9723 -55.4644 -88.1200 -0.0000 0.0000 -68.7971 -47.2020 27.7711 -26.7118 -7.1250 0.0000 -0.0000 -65.7935 46.4085 -4.1878 0.0000 -0.0000 0.0000 137.1321 71.6674 63.0100 -2.6272 4.5393 -0.1041 0.0000 0.0000 81.7113 26.5475 9.1814 4.5579 7.1250 -0.0000 -0.0000 35.1802 -19.3510 27.2176
0.3075 17.2825 -1.2885 -1.2001 6.4330 3.5928 0.0000 0.0000 0.0000 -16.3059 -20.2782 -9.9010 1.9939 8.8534 25.3378 0.5715 -0.2458 -14.2015 1.4390 -7.5840 -21.4575 0.0000 0.0000 0.0000 18.3721 9.6437 -8.0732 -1.2955 -7.2114 20.3433 -0.3783 -7.5782 -16.7901 -1.7110 8.2362 -23.4339 -4.8322 -0.1755 3.4575 2.0034 -0.2697 9.1754 4.8178 -0.5628 7.7512 -28.5062 -16.2053 20.8191 5.1669 -26.9619 34.4192 3.9211 -15.4564 13.7279 0.0000 -0.0000 0.0000 14.6648 -65.8573 -47.1463 122.9474 -55.4720 -88.0995 -0.0000 0.0000 -68.9024 -47.0780 27.6367 -26.5097 -7.1250 0.0000 -0.0000 -65.5887 46.3357 -3.9480 0.0000 -0.0000 0.0000 138.0512 71.9228 63.7161 -2.5748 4.4492 -0.1000 0.0000 0.0000 82.0428 26.4045 9.4440 4.6575 7.1250 -0.0000 -0.0000 35.0415 -19.1392 27.2677
0.3058 17.2788 -1.2593 -1.2188 6.2908 3.3982 0.0000 0.0000 0.0000 -16.3866 -20.1419 -9.5599 1.9965 8.8587 25.3543 0.5936 -0.2289 -14.4811 1.4580 -7.6317 -21.6008 0.0000 0.0000 0.0000 18.4668 9.6731 -7.6143 -1.2645 -7.1278 20.0944 -0.3660 -7.6633 -16.7179 -1.7521 8.3295 -23.7194 -4.9556 -0.2021 3.1937 2.0604 -0.2975 9.0824 4.9472 -0.5882 7.8094 -28.4992 -16.2961 20.4405 5.2569 -27.0520 34.1730 3.9060 -15.4728 13.6985 0.0000 0.0000 0.0000 15.9629 -64.9249 -48.1644 123.1634 -55.4063 -88.2774 -0.0000 0.0000 -68.8916 -46.7315 27.8674 -26.4075 -7.1250 0.0000 -0.0000 -65.7506 46.5589 -4.6009 0.0000 0.0000 0.0000 139.5240 72.4313 65.1105 -2.5430 4.3945 -0.0976 0.0000 0.0000 82.3963 26.9689 9.6403 4.8705 7.1250 -0.0000 -0.0000 35.2619 -18.8639 27.8341
0.3080 17.2763 -1.2261 -1.3058 6.2085 3.1864 0.0000 0.0000 0.0000 -16.4313 -20.1172 -9.1305 1.9961 8.8580 25.3521 0.6080 -0.1763 -14.6748 1.4112 -7.5136 -21.2461 0.0000 0.0000 0.0000 18.6218 9.5775 -7.1633 -1.2362 -7.0507 19.8656 -0.3646 -7.6660 -16.7030 -1.8065 8.4507 -24.0917 -4.9672 -0.2709 2.8877 2.1416 -0.3850 8.8315 5.0353 -0.6281 7.7234 -28.6422 -16.2344 20.5398 5.3563 -27.0645 33.7885 3.9763 -15.4883 13.5470 0.0000 -0.0000 0.0000 16.5505 -64.0769 -48.3770 123.2688 -55.3741 -88.3641 -0.0000 0.0000 -68.9184 -46.5501 28.0457 -26.3966 -7.1250 0.0000 -0.0000 -65.9020 46.7144 -5.0627 0.0000 -0.0000 0.0000 140.2408 72.6082 65.7460 -2.5511 4.4085 -0.0982 0.0000 0.0000 82.6917 27.6501 9.5382 4.9616 7.1250 -0.0000 -0.0000 35.6114 -18.8307 28.3192
0.3111 17.2756 -1.1903 -1.3098 6.1637 2.9135 0.0000 0.0000 0.0000 -16.6020 -20.0670 -8.6361 1.9983 8.8626 25.3663 0.6224 -0.1376 -14.8621 1.3327 -7.3101 -20.6375 0.0000 0.0000 0.0000 18.6967 9.3871 -6.6057 -1.2060 -6.9672 19.6184 -0.3721 -7.6409 -16.7726 -1.8578 8.5635 -24.4391 -4.7485 -0.2413 2.5263 1.9935 -0.3290 8.5435 4.7531 -0.5683 7.5997 -28.6121 -16.1834 20.9631 5.6264 -27.1996 33.5224 4.1019 -15.5575 13.4272 0.0000 0.0000 0.0000 17.4621 -63.6630 -48.5706 123.3168 -55.3593 -88.4036 -0.0000 0.0000 -68.8720 -46.5844 28.1274 -26.4850 -7.1250 0.0000 -0.0000 -66.0131 46.7649 -5.2259 0.0000 0.0000 0.0000 140.2629 72.8496 65.2456 -2.5903 4.4759 -0.1012 0.0000 0.0000 82.9993 27.8474 9.2250 4.8410 7.1250 -0.0000 -0.0000 35.7873 -19.0753 28.2835
0.3127 17.2744 -1.1563 -1.3334 6.0150 2.6756 0.0000 0.0000 0.0000 -16.7161 -19.9297 -8.2081 1.9972 8.8603 25.3593 0.6385 -0.0148 -15.0968 1.3438 -7.3393 -20.7245 0.0000 0.0000 0.0000 18.8048 9.4074 -6.0681 -1.1795 -6.8928 19.3982 -0.3703 -7.7128 -16.8195 -1.8451 8.5358 -24.3537 -4.4422 -0.1844 2.1496 1.7971 -0.2350 8.3481 4.3735 -0.4876 7.5819 -28.5253 -16.1843 21.0774 5.9776 -27.3483 33.3125 4.2159 -15.6129 13.3867 0.0000 0.0000 0.0000 18.7312 -63.1707 -49.1832 123.2719 -55.3731 -88.3667 -0.0000 0.0000 -68.8271 -46.4291 27.8739 -26.1719 -7.1250 0.0000 -0.0000 -65.6519 46.6164 -4.7413 0.0000 0.0000 0.0000 140.8889 73.2620 65.3166 -2.5817 4.4611 -0.1006 0.0000 0.0000 83.2693 27.9675 9.0035 4.7501 7.1250 -0.0000 -0.0000 35.9032 -19.2518 28.2415
0.3113 17.2731 -1.1249 -1.4800 5.8987 2.4090 0.0000 0.0000 0.0000 -16.6716 -19.7285 -7.8003 1.9944 8.8543 25.3406 0.6496 0.1271 -15.2780 1.4667 -7.6536 -21.6666 0.0000 0.0000 0.0000 19.0667 9.4376 -5.5317 -1.1573 -6.8300 19.2126 -0.3666 -7.7853 -16.8435 -1.8291 8.5007 -24.2455 -4.3481 -0.1764 1.9457 1.8299 -0.2237 8.1326 4.3542 -0.4696 7.4613 -28.5316 -16.1704 21.1678 6.2328 -27.4469 32.9604 4.3136 -15.6494 13.2743 0.0000 0.0000 0.0000 19.5593 -62.5646 -49.6719 123.2533 -55.3788 -88.3514 -0.0000 0.0000 -68.7694 -46.1882 27.8524 -25.9654 -7.1250 0.0000 -0.0000 -65.5395 46.6436 -4.7943 0.0000 0.0000 0.0000 141.5297 73.6571 65.7171 -2.5148 4.3461 -0.0954 0.0000 0.0000 83.4484 28.2357 8.8801 4.7387 7.1250 -0.0000 -0.0000 36.0612 -19.3106 28.3824
